<svg width="82" height="81" viewBox="0 0 82 81" fill="none" xmlns="http://www.w3.org/2000/svg">
<path d="M25.5575 29.2934C30.6447 43.1713 35.9113 48.7085 49.3094 54.6062L43.5031 62.7608C28.1178 55.395 20.4548 42.9787 16.8457 33.2892L25.5575 29.2934Z" fill="#00BFFF"/>
<path d="M29.8252 10.134C32.5454 10.1234 34.6138 12.3869 34.4283 14.95C34.1365 18.9834 34.4472 21.8935 35.2838 25.5006C35.7433 27.482 34.7037 29.4944 33.0517 30.7906C30.825 32.5377 29.1238 34.7638 27.7718 36.6801C25.8978 39.3363 19.4487 39.1454 18.0225 36.2518C15.0914 30.305 13.105 19.349 17.3853 11.947C18.0576 10.7843 19.4113 10.1748 20.8141 10.1693L29.8252 10.134Z" fill="#00BFFF"/>
<path d="M71.1178 54.1403C71.4561 51.5912 69.3254 49.3798 66.6089 49.2454C62.3339 49.0339 59.3123 48.3927 55.6212 47.1746C53.5936 46.5055 51.3532 47.2381 49.792 48.6311C47.6877 50.5086 45.1431 51.8358 42.9661 52.873C39.9487 54.3105 39.3737 60.3798 42.2439 62.065C48.1425 65.5282 59.4204 68.7081 67.716 65.5853C69.0191 65.0948 69.8226 63.8989 69.997 62.5844L71.1178 54.1403Z" fill="#00BFFF"/>
</svg>
