<svg width="8" height="13" viewBox="0 0 8 13" fill="none" xmlns="http://www.w3.org/2000/svg">
<g clip-path="url(#clip0_1547_167)">
<path d="M7.0306 7.03068L2.0306 12.0307C1.8897 12.1716 1.69861 12.2507 1.49935 12.2507C1.30009 12.2507 1.10899 12.1716 0.968098 12.0307C0.827201 11.8898 0.748047 11.6987 0.748047 11.4994C0.748047 11.3002 0.827201 11.1091 0.968098 10.9682L5.43747 6.50005L0.969348 2.03068C0.899583 1.96088 0.844243 1.87808 0.806486 1.78698C0.76873 1.69578 0.749297 1.59808 0.749297 1.49938C0.749297 1.40078 0.76873 1.30308 0.806486 1.21188C0.844243 1.12078 0.899583 1.03798 0.969348 0.968184C1.03911 0.898384 1.12194 0.843084 1.21309 0.805285C1.30424 0.767584 1.40194 0.748085 1.5006 0.748085C1.59926 0.748085 1.69696 0.767584 1.78811 0.805285C1.87926 0.843084 1.96208 0.898384 2.03185 0.968184L7.03185 5.96818C7.10169 6.03794 7.15707 6.1208 7.19481 6.21201C7.23256 6.30321 7.25193 6.40098 7.25181 6.49969C7.2517 6.5984 7.2321 6.69611 7.19414 6.78723C7.15617 6.87835 7.1006 6.96108 7.0306 7.03068Z" fill="#505050"/>
</g>
<defs>
<clipPath id="clip0_1547_167">
<rect width="12" height="7" fill="white" transform="matrix(0 -1 1 0 0.5 12.5)"/>
</clipPath>
</defs>
</svg>
